<mxfile host="app.diagrams.net" agent="Mozilla/5.0 (Windows NT 10.0; Win64; x64) AppleWebKit/537.36 (KHTML, like Gecko) Chrome/128.0.0.0 Safari/537.36" version="24.7.12">
  <diagram name="Página-1" id="FJ6LPC-JMkQCCTuoXmgh">
    <mxGraphModel dx="880" dy="434" grid="0" gridSize="10" guides="1" tooltips="1" connect="1" arrows="1" fold="1" page="1" pageScale="1" pageWidth="827" pageHeight="1169" math="0" shadow="0">
      <root>
        <mxCell id="0" />
        <mxCell id="1" parent="0" />
        <mxCell id="3qj_r1hXEl-L2aY7yEFL-15" style="edgeStyle=orthogonalEdgeStyle;rounded=0;orthogonalLoop=1;jettySize=auto;html=1;entryX=0.5;entryY=0;entryDx=0;entryDy=0;" edge="1" parent="1" source="3qj_r1hXEl-L2aY7yEFL-1" target="3qj_r1hXEl-L2aY7yEFL-4">
          <mxGeometry relative="1" as="geometry" />
        </mxCell>
        <mxCell id="3qj_r1hXEl-L2aY7yEFL-1" value="&lt;b&gt;Inicio&lt;/b&gt;" style="strokeWidth=2;html=1;shape=mxgraph.flowchart.terminator;whiteSpace=wrap;" vertex="1" parent="1">
          <mxGeometry x="364" y="20" width="100" height="60" as="geometry" />
        </mxCell>
        <mxCell id="3qj_r1hXEl-L2aY7yEFL-2" value="Fin" style="strokeWidth=2;html=1;shape=mxgraph.flowchart.terminator;whiteSpace=wrap;" vertex="1" parent="1">
          <mxGeometry x="357" y="1056" width="100" height="60" as="geometry" />
        </mxCell>
        <mxCell id="3qj_r1hXEl-L2aY7yEFL-3" value="&lt;b&gt;temporal = primero&lt;/b&gt;&lt;div&gt;&lt;b&gt;primero = segundo&lt;/b&gt;&lt;/div&gt;&lt;div&gt;&lt;b&gt;segundo = temporal&lt;/b&gt;&lt;/div&gt;" style="rounded=0;whiteSpace=wrap;html=1;" vertex="1" parent="1">
          <mxGeometry x="116.5" y="717" width="120" height="60" as="geometry" />
        </mxCell>
        <mxCell id="3qj_r1hXEl-L2aY7yEFL-4" value="&lt;b&gt;temporal = 0&lt;/b&gt;" style="rounded=0;whiteSpace=wrap;html=1;" vertex="1" parent="1">
          <mxGeometry x="362" y="118" width="111" height="43" as="geometry" />
        </mxCell>
        <mxCell id="3qj_r1hXEl-L2aY7yEFL-17" style="edgeStyle=orthogonalEdgeStyle;rounded=0;orthogonalLoop=1;jettySize=auto;html=1;exitX=0.5;exitY=1;exitDx=0;exitDy=0;exitPerimeter=0;entryX=0.5;entryY=0;entryDx=0;entryDy=0;" edge="1" parent="1" source="3qj_r1hXEl-L2aY7yEFL-6" target="3qj_r1hXEl-L2aY7yEFL-10">
          <mxGeometry relative="1" as="geometry" />
        </mxCell>
        <mxCell id="3qj_r1hXEl-L2aY7yEFL-6" value="&lt;b&gt;&quot;Ingrese un número&quot;&lt;/b&gt;" style="strokeWidth=2;html=1;shape=mxgraph.flowchart.display;whiteSpace=wrap;" vertex="1" parent="1">
          <mxGeometry x="364" y="194" width="100" height="60" as="geometry" />
        </mxCell>
        <mxCell id="3qj_r1hXEl-L2aY7yEFL-7" value="&lt;b style=&quot;&quot;&gt;&lt;font style=&quot;font-size: 12px;&quot;&gt;&amp;nbsp; &amp;nbsp; &amp;nbsp;&quot;Los números ordenados de menor a mayor se ven así: &quot;&lt;/font&gt;&lt;/b&gt;&lt;div style=&quot;&quot;&gt;&lt;b&gt;&lt;font style=&quot;font-size: 12px;&quot;&gt;&quot;primero &quot; primero&lt;/font&gt;&lt;/b&gt;&lt;/div&gt;&lt;div style=&quot;&quot;&gt;&lt;b style=&quot;&quot;&gt;&lt;font style=&quot;font-size: 12px;&quot;&gt;&quot;segundo &quot; segundo&lt;/font&gt;&lt;/b&gt;&lt;/div&gt;" style="strokeWidth=2;html=1;shape=mxgraph.flowchart.display;whiteSpace=wrap;" vertex="1" parent="1">
          <mxGeometry x="543" y="775" width="196" height="116" as="geometry" />
        </mxCell>
        <mxCell id="3qj_r1hXEl-L2aY7yEFL-19" style="edgeStyle=orthogonalEdgeStyle;rounded=0;orthogonalLoop=1;jettySize=auto;html=1;exitX=0.5;exitY=1;exitDx=0;exitDy=0;exitPerimeter=0;entryX=0.5;entryY=0;entryDx=0;entryDy=0;" edge="1" parent="1" source="3qj_r1hXEl-L2aY7yEFL-8" target="3qj_r1hXEl-L2aY7yEFL-11">
          <mxGeometry relative="1" as="geometry" />
        </mxCell>
        <mxCell id="3qj_r1hXEl-L2aY7yEFL-8" value="&lt;b&gt;&quot;Ingrese otro número&quot;&lt;/b&gt;" style="strokeWidth=2;html=1;shape=mxgraph.flowchart.display;whiteSpace=wrap;" vertex="1" parent="1">
          <mxGeometry x="364" y="362" width="100" height="60" as="geometry" />
        </mxCell>
        <mxCell id="3qj_r1hXEl-L2aY7yEFL-9" value="&lt;b&gt;&lt;font style=&quot;font-size: 12px;&quot;&gt;primero &amp;gt; segundo&lt;/font&gt;&lt;/b&gt;" style="strokeWidth=2;html=1;shape=mxgraph.flowchart.decision;whiteSpace=wrap;" vertex="1" parent="1">
          <mxGeometry x="341" y="551" width="132" height="107" as="geometry" />
        </mxCell>
        <mxCell id="3qj_r1hXEl-L2aY7yEFL-10" value="&lt;b&gt;primero&lt;/b&gt;" style="shape=parallelogram;html=1;strokeWidth=2;perimeter=parallelogramPerimeter;whiteSpace=wrap;rounded=1;arcSize=12;size=0.23;" vertex="1" parent="1">
          <mxGeometry x="367.5" y="272" width="100" height="60" as="geometry" />
        </mxCell>
        <mxCell id="3qj_r1hXEl-L2aY7yEFL-11" value="&lt;b&gt;segundo&lt;/b&gt;" style="shape=parallelogram;html=1;strokeWidth=2;perimeter=parallelogramPerimeter;whiteSpace=wrap;rounded=1;arcSize=12;size=0.23;" vertex="1" parent="1">
          <mxGeometry x="362" y="451" width="100" height="60" as="geometry" />
        </mxCell>
        <mxCell id="3qj_r1hXEl-L2aY7yEFL-23" style="edgeStyle=orthogonalEdgeStyle;rounded=0;orthogonalLoop=1;jettySize=auto;html=1;entryX=0.5;entryY=0;entryDx=0;entryDy=0;" edge="1" parent="1" source="3qj_r1hXEl-L2aY7yEFL-12" target="3qj_r1hXEl-L2aY7yEFL-3">
          <mxGeometry relative="1" as="geometry" />
        </mxCell>
        <mxCell id="3qj_r1hXEl-L2aY7yEFL-12" value="&lt;b&gt;Verdadero&lt;/b&gt;" style="text;html=1;align=center;verticalAlign=middle;resizable=0;points=[];autosize=1;strokeColor=none;fillColor=none;" vertex="1" parent="1">
          <mxGeometry x="138" y="591.5" width="77" height="26" as="geometry" />
        </mxCell>
        <mxCell id="3qj_r1hXEl-L2aY7yEFL-13" value="&lt;b&gt;Falso&lt;/b&gt;" style="text;html=1;align=center;verticalAlign=middle;resizable=0;points=[];autosize=1;strokeColor=none;fillColor=none;" vertex="1" parent="1">
          <mxGeometry x="616.5" y="587" width="49" height="26" as="geometry" />
        </mxCell>
        <mxCell id="3qj_r1hXEl-L2aY7yEFL-14" value="&lt;b style=&quot;&quot;&gt;&lt;font style=&quot;font-size: 12px;&quot;&gt;&amp;nbsp; &amp;nbsp; &amp;nbsp;&quot;Los números ordenados de menor a mayor se ven así: &quot;&lt;/font&gt;&lt;/b&gt;&lt;div style=&quot;&quot;&gt;&lt;b&gt;&lt;font style=&quot;font-size: 12px;&quot;&gt;&quot;primero &quot; primero&lt;/font&gt;&lt;/b&gt;&lt;/div&gt;&lt;div style=&quot;&quot;&gt;&lt;b style=&quot;&quot;&gt;&lt;font style=&quot;font-size: 12px;&quot;&gt;&quot;segundo &quot; segundo&lt;/font&gt;&lt;/b&gt;&lt;/div&gt;" style="strokeWidth=2;html=1;shape=mxgraph.flowchart.display;whiteSpace=wrap;" vertex="1" parent="1">
          <mxGeometry x="78.5" y="841" width="196" height="116" as="geometry" />
        </mxCell>
        <mxCell id="3qj_r1hXEl-L2aY7yEFL-16" style="edgeStyle=orthogonalEdgeStyle;rounded=0;orthogonalLoop=1;jettySize=auto;html=1;exitX=0.5;exitY=1;exitDx=0;exitDy=0;entryX=0.5;entryY=0;entryDx=0;entryDy=0;entryPerimeter=0;" edge="1" parent="1" source="3qj_r1hXEl-L2aY7yEFL-4" target="3qj_r1hXEl-L2aY7yEFL-6">
          <mxGeometry relative="1" as="geometry" />
        </mxCell>
        <mxCell id="3qj_r1hXEl-L2aY7yEFL-18" style="edgeStyle=orthogonalEdgeStyle;rounded=0;orthogonalLoop=1;jettySize=auto;html=1;exitX=0.5;exitY=1;exitDx=0;exitDy=0;entryX=0.5;entryY=0;entryDx=0;entryDy=0;entryPerimeter=0;" edge="1" parent="1" source="3qj_r1hXEl-L2aY7yEFL-10" target="3qj_r1hXEl-L2aY7yEFL-8">
          <mxGeometry relative="1" as="geometry" />
        </mxCell>
        <mxCell id="3qj_r1hXEl-L2aY7yEFL-20" style="edgeStyle=orthogonalEdgeStyle;rounded=0;orthogonalLoop=1;jettySize=auto;html=1;exitX=0.5;exitY=1;exitDx=0;exitDy=0;entryX=0.5;entryY=0;entryDx=0;entryDy=0;entryPerimeter=0;" edge="1" parent="1" source="3qj_r1hXEl-L2aY7yEFL-11" target="3qj_r1hXEl-L2aY7yEFL-9">
          <mxGeometry relative="1" as="geometry" />
        </mxCell>
        <mxCell id="3qj_r1hXEl-L2aY7yEFL-21" style="edgeStyle=orthogonalEdgeStyle;rounded=0;orthogonalLoop=1;jettySize=auto;html=1;exitX=0;exitY=0.5;exitDx=0;exitDy=0;exitPerimeter=0;entryX=0.987;entryY=0.481;entryDx=0;entryDy=0;entryPerimeter=0;" edge="1" parent="1" source="3qj_r1hXEl-L2aY7yEFL-9" target="3qj_r1hXEl-L2aY7yEFL-12">
          <mxGeometry relative="1" as="geometry" />
        </mxCell>
        <mxCell id="3qj_r1hXEl-L2aY7yEFL-22" style="edgeStyle=orthogonalEdgeStyle;rounded=0;orthogonalLoop=1;jettySize=auto;html=1;entryX=0.02;entryY=0.692;entryDx=0;entryDy=0;entryPerimeter=0;" edge="1" parent="1" source="3qj_r1hXEl-L2aY7yEFL-9" target="3qj_r1hXEl-L2aY7yEFL-13">
          <mxGeometry relative="1" as="geometry" />
        </mxCell>
        <mxCell id="3qj_r1hXEl-L2aY7yEFL-24" style="edgeStyle=orthogonalEdgeStyle;rounded=0;orthogonalLoop=1;jettySize=auto;html=1;entryX=0.5;entryY=0;entryDx=0;entryDy=0;entryPerimeter=0;" edge="1" parent="1" source="3qj_r1hXEl-L2aY7yEFL-13" target="3qj_r1hXEl-L2aY7yEFL-7">
          <mxGeometry relative="1" as="geometry" />
        </mxCell>
        <mxCell id="3qj_r1hXEl-L2aY7yEFL-25" style="edgeStyle=orthogonalEdgeStyle;rounded=0;orthogonalLoop=1;jettySize=auto;html=1;exitX=0.5;exitY=1;exitDx=0;exitDy=0;entryX=0.5;entryY=0;entryDx=0;entryDy=0;entryPerimeter=0;" edge="1" parent="1" source="3qj_r1hXEl-L2aY7yEFL-3" target="3qj_r1hXEl-L2aY7yEFL-14">
          <mxGeometry relative="1" as="geometry" />
        </mxCell>
        <mxCell id="3qj_r1hXEl-L2aY7yEFL-26" style="edgeStyle=orthogonalEdgeStyle;rounded=0;orthogonalLoop=1;jettySize=auto;html=1;entryX=0.5;entryY=0;entryDx=0;entryDy=0;entryPerimeter=0;" edge="1" parent="1" source="3qj_r1hXEl-L2aY7yEFL-14" target="3qj_r1hXEl-L2aY7yEFL-2">
          <mxGeometry relative="1" as="geometry">
            <Array as="points">
              <mxPoint x="177" y="982" />
              <mxPoint x="407" y="982" />
            </Array>
          </mxGeometry>
        </mxCell>
        <mxCell id="3qj_r1hXEl-L2aY7yEFL-27" style="edgeStyle=orthogonalEdgeStyle;rounded=0;orthogonalLoop=1;jettySize=auto;html=1;entryX=0.5;entryY=0;entryDx=0;entryDy=0;entryPerimeter=0;" edge="1" parent="1" source="3qj_r1hXEl-L2aY7yEFL-7" target="3qj_r1hXEl-L2aY7yEFL-2">
          <mxGeometry relative="1" as="geometry">
            <Array as="points">
              <mxPoint x="641" y="982" />
              <mxPoint x="407" y="982" />
            </Array>
          </mxGeometry>
        </mxCell>
      </root>
    </mxGraphModel>
  </diagram>
</mxfile>
